<?xml version="1.0" encoding="UTF-8"?>
<svg id="Layer_1" data-name="Layer 1" xmlns="http://www.w3.org/2000/svg" viewBox="0 0 960 960">
  <defs>
    <style>
      .cls-1 {
        fill: #f26f31;
      }

      .cls-1, .cls-2, .cls-3, .cls-4 {
        fill-rule: evenodd;
        stroke-width: 0px;
      }

      .cls-2 {
        fill: #008d3c;
      }

      .cls-3 {
        fill: #2e3191;
      }

      .cls-4 {
        fill: #7f4007;
      }
    </style>
  </defs>
  <path class="cls-3" d="M670.63,548.52l.24-.94-.24.94h0ZM587.64,612.62c-28.62,0-9.96-63.24-4.99-77.44,5.3-15.14,19.83-46.58,32.34-55.89,14.37-10.72,30.23-10.66,47.42-8.16,3.83.54,20.31,4.06,24.02,5.82l-6.02,29.99-9.78,19.64c-3.32,6.38-12.94,21.89-17,27.32l-19,24.45-17.69,19.23c-6.2,6.2-20.56,15.03-29.31,15.03h0ZM670.63,548.52c0,2.85-4.01,21.9-4.89,26.31-1.71,8.71-3.24,17.23-5.04,26.12-3.53,17.43,1.21,38.4,21.74,38.47,19.98.06,38.02-12.48,50.65-23.16,4.48-3.78,5.9-5.52,10.08-9.66,1.37-1.38,6.44-7.34,6.98-8.84.39-1.13,2.11-12.04,2.11-13.68l-10.28,10.77c-.07.07-.16.18-.19.24-.46.44,0,.04-.69.65-5.69,4.92-10.4,10.24-17.46,15.02-5.89,4.03-18.24,12.78-25.75,8.38-7.89-4.63-3.02-22.99-1.69-29.7.96-4.89,2.16-10,3.22-15.22,5.06-25.57,10.97-50.95,16.02-76.17l9.61-46.13c-4.92,0-10.14-.82-13.17-.91-19.28-.97-39.41-1.89-58.52,1.21-10.96,1.77-20.52,4.49-29.41,8.33-6.95,2.99-15.13,7.63-21.22,12.18l-7.82,6.21c-7.92,5.96-18.18,15.96-24.11,23.31-15.98,19.86-25.67,38.21-31.56,63.29-4.38,18.72-5.39,45.4,7.25,62.32,14.3,19.16,36.32,11.84,53.57,1.57,4.78-2.85,9.16-6.45,13.46-9.83,1.07-.77,1.56-1.4,2.59-2.23,5.63-4.55,9.52-8.75,14.65-13.87l8.98-9.91c8.49-10.02,22.43-29.71,28.95-42.17.79-1.48.71-2.05,1.93-2.92h0Z"/>
  <path class="cls-3" d="M219.74,411.52l-30.11-.27v-17.74l33.61-.22c.05-2.98,1.23-7.35,1.79-10.26,5.16-26.02,4.57-42.18,21.53-63.2,12.36-15.27,33.53-20.4,52.79-14.71,3.35,1.02,5.89,2.09,8.75,3.54l8.21,4.1,26.02-25.8c-2.46-.18-6.74-1.03-9.01-1.31-30.2-1.57-57.14.61-83.92,16.8-29.94,18.12-51.5,51.11-58.89,85.12-1.6,7.36-.64,5.7-4.11,5.54l-41.38-.07c-2.31.11-2.16.32-2.18,2.65l.06,15.85h43.01c0,2.5-2.89,16.89-3.51,20.65-1.12,6.78-2.39,13.5-3.69,20.43-5.08,26.76-9.45,55.89-14.64,82.4-1.36,6.9-2.48,13.62-3.64,20.52-1.14,6.92-2.49,13.75-3.76,20.81-6.57,36.59-10.76,87.61-52.53,92.78-16.95,2.12-28-2.3-42.05-5.57l-5.21,6.21c-1.78,2.19-3.72,4.01-5.51,6.32l-9.41,10.81c-1.18,1.49-1.62,1.49-1.79,3.57,21.78,0,43.71,2.68,64.57-4.91,1.72-.62,3.3-1.22,5.08-1.92,10.66-4.23,18.25-9.52,26.96-16.5l7.21-6.83c2.15-2.8,6.24-6.92,10.03-11.93,2.17-2.84,3.89-5.66,5.9-8.62,1.92-2.91,3.42-5.67,5.2-8.83,15.7-28.09,25.61-66.27,31.84-97.65,1.55-7.75,3.35-16.36,4.68-24.32,3.99-24,9.48-49.12,13.55-72.94l4.52-24.49h0Z"/>
  <path class="cls-1" d="M219.74,411.52l691.92.02,7.46-18.44-126.89-.13-6.16.27c-5.4-.69-280.07-.14-281.87-.14H240.37c-4.99,0-13.53.41-17.12.19l-33.61.22v17.74l30.11.27h0Z"/>
  <path class="cls-1" d="M796.64,466.42c5.64,0,11.73-.41,16.13,4.05,7.47,7.51,2.72,22.1,1.1,30.75-1.15,6.27-2.19,11.86-3.44,18.07l-10.24,53.85c-1.98,9.84-9.7,47.6-9.7,54.84,0,10.27.73,21.15,7.99,28.46,7.14,7.14,12.61,9.31,23.61,9.31,14.97,0,32.63-9.47,44.27-17.22l25.76-20.34c.62-1.46.23-12.62.23-15.15-2.05.55-4,3.78-6.52,5.8-8.12,6.45-10.9,9.99-21.67,16.53-6.21,3.76-20.27,10.62-26.47,2.92-5.74-7.15-2.92-20.36-1.29-28.49l37.06-182.89c-2.17,1.03-5.95,1.92-8.6,2.8-14.05,4.7-29.71,9.14-43.7,13.82l-43.67,13.85c-4.62,1.32-7.43,1.71-7.65,4.19-1.21,13.11-1.51,11.77,2.99,10.47,1.41-.42,3.25-.83,4.88-1.29,3.6-1.03,15.62-4.33,18.94-4.33h0Z"/>
  <path class="cls-3" d="M405.87,502.43c0,14.79,4.58,24.71,13.3,33.25l24.97,28.16c4.08,5.06,7.91,7.6,11.66,15.12,8.63,17.22,4.41,35.85-16.27,40.51-4.87,1.07-8.15.74-13.02.62-6.93-.17-16.32-3.47-22.58-5.96-9.74-3.9-11.15-5.64-19.11-9.84-1.55,2.31-11.75,12.19-13.95,14.59l-8.45,9.1c3.74,1.99,17.66,6.1,21.62,6.94,28.13,5.94,55.4,4.36,79.1-12.01,5.47-3.8,12.81-10.98,16.22-16.73,2.29-3.86,3.72-6.23,5.29-10.94,4.96-15,1.85-30.59-7.58-42.38l-28.85-35.25c-3.47-4.39-8.69-9.8-11.02-14.47-3.11-6.24-5.49-11.7-4.54-20.48,1.49-13.98,17.37-21.94,29.41-21.94,5.55,0,9.93-.15,15.33,1.8,7.93,2.86,16.3,9.16,16.3,18.82,0,7.18-.54,5.55-.89,9.66h10.99c.99-2,3.84-15.21,4.51-18.32l4.27-19c-4.08-.96-7.01-3.1-16.37-4.71-18.75-3.2-36.07-1.75-53.45,6.03-6.22,2.79-14.37,7.53-19.18,12.41l-3.97,3.94c-7.65,8.76-13.72,17.93-13.72,31.07h0Z"/>
  <path class="cls-3" d="M250.89,503.74c0,9.25,3.36,19.89,8.97,27.05l21.08,23.7c.81,1.03,1.22,1.36,2.12,2.26l10.76,12.08c4.66,4.58,11.52,15.86,11.52,24.9s-2.34,15.83-8.54,20.45c-16.39,12.33-40.24,4.12-56.32-3.92-1.83-.9-3.24-1.76-5.1-2.78-1.64-.89-3.4-2.36-5.14-2.77l-16.93,17.29c-2.27,2.96-4.91,4.49-5.44,6.42,1.89.43,3.33,1.11,4.89,1.69,1.78.66,3.6,1.22,5.25,1.76,28.39,9.56,66,9.07,90.02-8.63,6.29-4.68,11.41-9.2,15.82-15.79,11.86-17.54,10.98-38.26-1.85-54.98l-36.77-44.88c-1.68-1.89-2.37-3.26-3.5-5.73-2.56-5.73-4.06-9.02-4.06-16.13,0-31.94,61.47-34.06,61.47-2.18,0,3.19-.83,4.82-.87,7.45,12.71,0,10.98,1,12.02-3.77.39-1.76.7-3.25,1.06-4.65,1.04-4.25,5.76-26.58,6.66-28.45-8.93-4.73-23.28-6.58-35.55-6.58-19.66,0-42.46,8.89-52.59,18.98-1.52,1.5-2.67,2.14-4.18,3.71-.91.97-.97,1.24-1.76,2.2-6.11,7.22-10.46,13.76-12.17,23.83-.31,1.81-.87,5.54-.87,7.47h0Z"/>
  <path class="cls-2" d="M820.34,377.3c-2.39,3.53-9.84,7.42-14.64,9.06-3.51,1.19-10.32,2.91-14.37,3.21-2.15.14-3.9.45-5.68.45,0,1.79-.07,1.93.42,3.22l6.16-.27c1.09-.48,14.76-.9,25.72-8.84,6.95-5.01,1.63-3.37,9.59-4.46,2.56-.34,3.85-.31,6.23-.8,36.48-7.41,50.82-54.92,51.1-88.52l.76-13.28c.51-3.59.13-10.01.13-13.92h-.88c-.47,5.8-11.28,22.17-14.92,27.23-22.61,25.28-57.62,50.09-49.62,86.93h0Z"/>
  <path class="cls-4" d="M796.24,348.49c8.95,0,16.21,7.25,16.21,16.17s-7.25,16.17-16.21,16.17-16.17-7.24-16.17-16.17,7.25-16.17,16.17-16.17h0Z"/>
  <path class="cls-2" d="M859.29,679.27l-8.83,17.66H40v-3.3c42.17,2.91,69.95-2.77,87.94-14.31l731.35-.05h0Z"/>
</svg>