<svg xmlns="http://www.w3.org/2000/svg" viewBox="0 0 311.6 335.3"><defs><style>.cls-1{fill:#fae510;stroke:#fae510;}.cls-1,.cls-3,.cls-8{stroke-miterlimit:10;}.cls-2{fill:#fea525;}.cls-3,.cls-8{fill:none;stroke:#f4bd56;}.cls-3{stroke-width:4px;}.cls-4{fill:#affe4b;}.cls-5{fill:#c20114;}.cls-6{fill:#c30215;}.cls-7{fill:#f9dd10;}</style></defs><title>lol</title><g id="Capa_2" data-name="Capa 2"><g id="Logo"><polyline class="cls-1" points="107.82 70.93 77.66 8.68 51.26 9.76 97.75 77.49"/><polyline class="cls-1" points="128.7 51.29 121.1 8.62 101.56 8.62 118.14 61.17"/><polyline class="cls-1" points="156.57 42.23 160.07 9.09 160.12 8.62 144.17 8.62 144.16 9.01 143.18 46.2"/><polyline class="cls-1" points="188.93 40.4 201.14 8.62 181.79 8.62 173.89 40.4"/><polyline class="cls-1" points="225.27 49.82 258.95 8.62 230.33 8.57 205.97 43.17"/><polyline class="cls-1" points="229.6 90.49 270.39 69.39 269.87 41.28 233.83 67.41"/><polygon class="cls-1" points="202.41 153.54 270.49 163.36 270.49 143.89 211.66 142.34 202.41 153.54"/><polyline class="cls-1" points="223.16 128.57 270.49 120.02 270.49 97.81 224.12 114.16"/><path class="cls-1" d="M186.68,167.14l49.16,28.69h0l33.75-.7s0-4.84-.79-4.7l-73.37-28.72"/><polyline class="cls-1" points="176.81 174.71 201.07 202.08 218.61 198.01 183.54 169.55"/><polyline class="cls-1" points="163.56 182.26 178.45 208.64 187.47 205.86 169.44 175.23"/><polyline class="cls-1" points="152.62 187.05 160.4 217.96 167.56 213.37 160.4 187.69"/><polyline class="cls-1" points="141.15 183.95 139.5 231.36 146.99 226.5 147.49 183.39"/><polyline class="cls-1" points="126.99 185.05 113.58 224.18 124.55 229.25 134.05 186.54"/><polyline class="cls-1" points="113.58 184.3 86.36 217.53 99.52 220.48 120.47 186.48"/><polyline class="cls-1" points="100.58 172.3 86.89 181.89 77.46 188.16 38.82 213.81 63.86 214.78 72.76 206.54 79.71 202.06 108.05 177.74"/><polyline class="cls-1" points="97.69 158.07 38.92 169.96 38.92 188.62 96.79 168.08"/><polyline class="cls-1" points="81.34 136.69 38.82 131.66 38.82 148.59 83.47 147.36"/><polyline class="cls-1" points="80.35 112.9 38.92 91.75 38.92 110.47 82.31 124.79"/><polyline class="cls-1" points="89.74 88.87 38.92 37.1 38.92 64.16 88.06 103.67"/><path class="cls-2" d="M97.73,74.19A8.75,8.75,0,0,1,98,77.25c1.38-.19,2.09-1.86,2.77-3.21,2.45-4.87,7.14-7.73,11.75-9.84a17.9,17.9,0,0,0,5.72-3.44,18.78,18.78,0,0,0,3.21-5.37c.4-.89,1.19-1,2.05-1.24,1.26-.43,2.75-.34,3.71-1.36a19.57,19.57,0,0,0,1.25-2c.94-1.26,2.51-1.6,4-1.85a8.59,8.59,0,0,1,4.85.15,7.7,7.7,0,0,0,2.6,1c.93,0,1.92-1.13,1.4-2a4.71,4.71,0,0,1,3.26-2.71c18.1-5.8,37.26-5.76,56-4.41l-1.1,2.76a38.06,38.06,0,0,1,11.93-1.61,7.66,7.66,0,0,1,3.93.9,3.82,3.82,0,0,1,1.79,3.75h5.61a1.35,1.35,0,0,1,1,.25,3.16,3.16,0,0,1,.52,1c.64,1.33,2.33,1.21,3.67,1.06s3.12.23,3.27,1.73c.09.82-.4,1.71,0,2.42.51,1,1.86.44,2.69-.23-.21,2.55-.6,4.93-.81,7.49a6.94,6.94,0,0,0,.26,3.28c.43,1,1.56,1.71,2.44,1.19a75.67,75.67,0,0,0,.11,18.48,5.66,5.66,0,0,1,0,2.17c-.34,1.22-1.44,1.91-2.37,2.64a5.21,5.21,0,0,0-2.2,3.36c-.16,1.42.94,3,2.19,2.73-1.07,2.79-2.28,5.51-3.6,8.17-.81.16-1.17,1.16-1.34,2.07a20.84,20.84,0,0,1-.39,2.76c-.6,1.91-2.52,2.87-3.45,4.6a10,10,0,0,0-.79,4.35l-.3,9.85c0,1.16-.15,2.48-1,3.16a4.26,4.26,0,0,0-.66.53,3.52,3.52,0,0,0-.42,1c-1.1,2.87-5.52,2.25-6.73,5.06a9,9,0,0,0-.43,2.8,10.43,10.43,0,0,1-3.77,7.19c-1.88,1.47-4.34,2.19-5.61,4.34-.64,1.08-.89,2.41-1.54,3.48-1.17,1.95-3.37,2.68-5.39,3.27a5.08,5.08,0,0,1-1.41,4,14.06,14.06,0,0,1-3.4,2.56l-7.88,4.73a4.65,4.65,0,0,1-1.62,3.23A22.27,22.27,0,0,1,171.9,178a12,12,0,0,0-4.89,2,5.12,5.12,0,0,0-2,2c-.38.93-.15,2-.4,3-.56,2.16-3,2.76-5,3a24,24,0,0,1-8.41-.88c-4.24-1.32-8.71-2.16-12.72-.34-1,.44-2,1.32-1.9,2.49.1.89.9,1.69.63,2.53a1.21,1.21,0,0,1-1.93.37,7.76,7.76,0,0,1-1.37-2,5.21,5.21,0,0,0-6.87-1.9,24.23,24.23,0,0,0-5.33-1.29,25.28,25.28,0,0,1-6.4-1.12,9.28,9.28,0,0,1-5.16-4.17,4.22,4.22,0,0,0-.94-1.38c-1-.74-2.49-.05-3.34-1a4.91,4.91,0,0,1-.66-1.19c-1.32-2.48-4.8-2.05-6.66-4.05-1-1.14-1.45-3.49-2.91-3.59-2.12-.14-5.1,2.92-4.43,2.27h0"/><polyline class="cls-3" points="274.57 195.62 274.57 2 33.93 2 33.93 2.83 33.93 151.7 33.93 214.98"/><path class="cls-4" d="M70.72,215.67a135.86,135.86,0,0,0-39.65-.16h0q.06,27.83.11,55.66h0c18.49-3.25,34.54-5.42,47.39-6.92,13.67-1.59,28.5-3.28,48.4-4.07,7.18-.28,18-.69,32.26-.32,12.58.32,15.73.94,35.51,1.68,16.88.63,15.52.22,23.85.77,15.38,1,27.43,2.92,35,4.13,9,1.44,16.1,2.83,22.17,4.13l.64.07v-75a276.15,276.15,0,0,0-48.76,1.25c-16.51,2.19-27.91,5.6-48.38,11.71a66.32,66.32,0,0,0-6.85,2.41c-8.12,3.41-11.87,7-18.82,11.54-8.48,5.53-12.72,8.3-17.27,9-7.84,1.13-12-2.7-23.48-7.06a109.73,109.73,0,0,0-26.14-6.37c-4.25-.66-7.8-1-10.26-1.21"/><path class="cls-5" d="M296,333.94c.43-1-.2-1.88-1.94-8.83a38.51,38.51,0,0,1-1.05-6.67c-.19-2.5,0-5.63.46-11.88.75-10.9,1.13-16.35,2.12-19.39s3.08-8.05,1.72-9.29a1.16,1.16,0,0,0-.35-.21c-5.21-2.34-6.8-3.22-9.85-3.93-42.45-9.94-74.21-11-74.21-11-63-2.12-52.86-2.53-64.47-2.41C83.52,261,46.62,270.84,31,271.68a29.24,29.24,0,0,0-7.52,1.38,31.63,31.63,0,0,0-10.13,5.51h0c-2.61,2.13,5.26,11.87,5.84,25.14.14,3.32.33,21.22-6.45,28.93-.24.27-.74.83-.61,1.3.82,3,26.1-3.58,40.77-6.64,16.34-3.41,34.75-3.86,71.57-5.24,12.53-.47,47.54-1.4,90.71,1.29,22.15,1.38,33.22,2.07,41.44,3.87C273.82,331,294.19,338.33,296,333.94Z"/><path class="cls-6" d="M12.55,282.56c-1.73-.09-6.63,2.07-8.35,2.13a.31.31,0,0,0-.17.05c-.86.48-.17,5,1.15,8.49,1.42,3.78,2.48,3.47,3.16,6.11,1.11,4.28-.78,8.51-1.15,9.34C4.55,314.58-.08,314.86,0,318c.07,2.45,3.5,4.53,5,5.39,3.29,1.89,9,3.45,12.13.25a8.37,8.37,0,0,0,2-4.74C21,306.23,17.93,282.83,12.55,282.56Z"/><path class="cls-7" d="M35.92,287c3-.57,5.6-.4,7.62.72a8.68,8.68,0,0,1,4.11,6.3c1.31,7-3.52,10.85-7.59,11.61a6.66,6.66,0,0,1-1.18.12l-3.11-.31,1.4,7.5c.75,4,1.07,4.08,5.1,3.82l.25,1.35-11.83,2.21-.25-1.35c3.61-1.12,3.72-1.44,3-5.43l-3.56-19.09c-.8-4.28-1.29-4.29-4.75-4L24.86,289Zm-.47,16.76a7.26,7.26,0,0,0,3.25,0c2.87-.54,6.12-2.84,5-8.89-1-5.29-4.47-6.83-8.07-6.16a3.57,3.57,0,0,0-2.29,1c-.28.4-.3,1-.06,2.3Z"/><path class="cls-7" d="M83.36,312.22c-.56.08-1,.09-1.61.12-3.19.2-5-.49-7.32-3.23-1.94-2.25-3.91-5.09-5.64-7.37-1.07-1.43-1.68-1.64-3.88-1.33l-1.51.2,1.05,7.61c.57,4.12,1.08,4.3,4.59,4.2l.19,1.36-11.53,1.6L57.51,314c3.52-.93,3.8-1.17,3.23-5.29L58.06,289.4c-.56-4.11-1.06-4.19-4.53-4.16l-.19-1.35,11-1.53c3.16-.43,5.33-.29,7.14.69a7.59,7.59,0,0,1,3.82,6c.58,4.17-1.44,7.11-4.42,9.11,1,1.39,3.29,4.38,4.89,6.38a46,46,0,0,0,4.1,4.52,6.21,6.21,0,0,0,3.46,1.79ZM65.24,298.68c2.25-.31,3.62-.9,4.56-2.06,1.49-1.64,1.91-3.67,1.55-6.29-.71-5.18-4-6.65-7.37-6.19a3.69,3.69,0,0,0-2.22.8c-.34.4-.4.9-.23,2.16L63.17,299Z"/><path class="cls-7" d="M104.15,310l-.12-1.36c2.79-.63,3.1-1.15,2.33-2.95s-1.8-4.21-3-7.21l-9.38.79c-.51,2.26-1,4.21-1.44,6.26-.69,3.25,0,3.59,3.56,3.77l.11,1.37-10,.84-.11-1.36c2.7-.62,3.36-1,4.51-5.53l6.84-26.35,1.36-.41c3.44,8.1,7.21,17.06,10.66,25.26,1.75,4.13,2.17,4.48,5.29,4.61l.11,1.37Zm-6.54-25.61c-1,4.31-2.13,8.87-3.11,12.83l8.12-.68Z"/><path class="cls-7" d="M133.87,284c-.86-3.2-2.2-6.33-6.29-6.17-3.4.13-4.47,3-4.38,5.5.13,3.37,2.11,5,5.81,7,5.34,2.84,7.69,5,7.87,9.64.19,5.13-3.63,9.19-9.25,9.41a16.55,16.55,0,0,1-6.72-1.37c-.4-1.35-1-4.65-1.46-7.28l1.34-.44c1,3.24,3.07,7.42,7.6,7.25,3.14-.12,5-2.64,4.84-5.82-.14-3.76-2-5.21-5.9-7.41-4.68-2.61-7.34-4.86-7.51-9.4-.17-4.36,2.9-8.58,8.65-8.8a25.41,25.41,0,0,1,5.79.71c.24,1.75.48,3.7,1,6.87Z"/><path class="cls-7" d="M160.13,308.23v-1.37c2.84-.36,3.19-.85,2.6-2.71s-1.39-4.37-2.28-7.46l-9.41-.09c-.72,2.19-1.39,4.09-2,6.09-1,3.17-.39,3.57,3.18,4.09v1.37l-10.07-.1,0-1.36c2.75-.37,3.45-.7,5-5.09L156.44,276l1.4-.28c2.66,8.39,5.58,17.67,8.24,26.15,1.35,4.27,1.74,4.67,4.83,5.09l0,1.37ZM156,282.12c-1.43,4.19-3,8.63-4.31,12.48l8.15.08Z"/><path class="cls-7" d="M189.06,277.54c6.13.39,9.92,2,12.43,5.06a15.1,15.1,0,0,1,3,10.69c-.36,5.71-2.75,10.21-6.28,12.83s-7.78,3.37-13.13,3l-10.18-.66.09-1.36c3.77-.15,4-.48,4.22-4.48l1.25-19.48c.27-4.2-.24-4.43-3.6-5l.08-1.36Zm-6,24.95c-.24,3.66,1.09,4.78,4.35,5,7.83.5,12.22-5.25,12.77-13.79.34-5.32-1-9.47-4.29-12a12.66,12.66,0,0,0-7.31-2.43c-2-.13-3,.1-3.48.46s-.62.79-.75,2.7Z"/><path class="cls-7" d="M225,312.79l.16-1.36c2.86-.05,3.26-.5,2.88-2.42s-.92-4.49-1.46-7.66l-9.35-1.12c-.95,2.11-1.82,3.92-2.67,5.84-1.33,3.05-.77,3.51,2.72,4.42l-.16,1.36-10-1.2.17-1.36c2.77-.06,3.5-.32,5.54-4.51l12-24.43,1.42-.12c1.73,8.63,3.62,18.17,5.35,26.89.88,4.4,1.22,4.83,4.25,5.59l-.16,1.36Zm-1.24-26.41c-1.88,4-3.88,8.26-5.64,11.94l8.09,1Z"/><path class="cls-7" d="M263.69,318.89l.24-1.35c3.59.25,3.77,0,4.66-5.17l3.59-19.63c-5.11,8.17-13.26,20.92-15.52,24.88l-1.12-.2c-.67-4.64-3.12-18.76-4.81-28.06-3.77,16.72-4.5,20.51-4.67,21.42-.44,2.71.56,3.29,3.42,4.15l-.24,1.35-10.17-1.84.24-1.35c2.54.16,3.68-.23,4.49-2.76.64-2.07,1-3.8,5.29-21.16.62-2.48.34-3.37-3.37-4.44l.25-1.35,7.46,1.35,5.07,26.12,14.58-22.57,7.5,1.36-.24,1.35c-3.78-.19-4.33.16-4.85,3.54l-3.17,18.52c-.76,5.18-.67,5.44,3,6.56L275.1,321Z"/><path class="cls-2" d="M98,73.91a2.63,2.63,0,0,0-3.52-.42,7.53,7.53,0,0,0-2.43,3.28A59.35,59.35,0,0,0,89,85.93c-1,3.83-2.1,7.93-1,11.75.3,1.07.73,2.33.11,3.21a2.35,2.35,0,0,1-1.34.81,11.93,11.93,0,0,1-5.6.26,51.84,51.84,0,0,0-.22,17.22c.35,2.24.85,4.47,1,6.74.21,3.83-.64,7.61-1.48,11.32.71,2.73,1.28,5.57,2,8.3a4.13,4.13,0,0,0,1,2.14,1.16,1.16,0,0,0,1.86-.32c.66,1.21.34,2.76.43,4.17s1.16,3.06,2.33,2.53A11.76,11.76,0,0,0,91.14,160c1,1,2.28,2.15,2,3.6a3.55,3.55,0,0,1-.76,1.42,48.62,48.62,0,0,1-3,4c-2,2.1-8.81,12.62-13.93,26.2a94.15,94.15,0,0,0-5.17,17.68c-3.18,18,1.85,36.52,1.85,36.52s3.48.29,4.45-1.21c.79-1.24-.26-3.51-.46-4-2.92-6.68-.66-27.36-.31-30.46,2.15-19.27,12.57-36.75,15.65-41.71"/><path class="cls-6" d="M299.05,282.56c1.73-.09,6.64,2.07,8.35,2.13a.32.32,0,0,1,.18.05c.85.48.17,5-1.15,8.49-1.43,3.78-2.48,3.47-3.17,6.11-1.11,4.28.78,8.51,1.15,9.34,2.64,5.9,7.28,6.18,7.19,9.34-.06,2.45-3.5,4.53-5,5.39-3.29,1.89-9,3.45-12.13.25a8.44,8.44,0,0,1-2-4.74C290.63,306.23,293.68,282.83,299.05,282.56Z"/><path class="cls-8" d="M270.49,195.62V9.44l.72-.82H38.92v206c-.43.56-1.29.33-1.94.24a12.3,12.3,0,0,0-5.42.48"/><path class="cls-6" d="M172,86.44c.53-.65,1.32-1.22,7.48-2.06a50.91,50.91,0,0,1,7.37-.78c6.75.56,11.48,6.86,13.7,9.82,4.64,6.18,5.92,12.54,6.68,16.28.88,4.4,1.84,9.15.23,14.59-.89,3-2.21,4.87-4.84,8.66-3.62,5.2-6,8.58-10.24,10.46a12.57,12.57,0,0,1-9.1.77c-3.88-1.27-7.77-5-7.25-7.36.36-1.65,2.57-1.48,6.91-4.39a35.69,35.69,0,0,0,5-4.13,29.17,29.17,0,0,0,7-13.05,29.93,29.93,0,0,0-1.15-16,22.6,22.6,0,0,0-5.53-9.56c-.41-.4-3.79-3.65-5-2.71-.94.76.6,3.47.92,8.53a22.78,22.78,0,0,1-1.15,9.81c-.68,1.81-2.82,6.58-7.13,8.14-1,.37-3,1.09-4.26,0-1.06-.92-1-2.59-.81-8,.09-2.93.15-5.85.23-8.78C171.3,88.82,171,87.72,172,86.44Z"/><path class="cls-6" d="M103.29,104.4a10.73,10.73,0,0,1,7.83-1.29,11.81,11.81,0,0,1,6.33,4.91c9.69,13.68,26.94,36.68,26.94,36.68,11.45,5.82,22.32,3.27,25.9-3.49.38-.73.1-2.08.8-10.85.12-1.42.11-1.32.12-1.42.3-8.72-8.27-16.71-7.6-15.76a8.31,8.31,0,0,1-1.73-5.29,15.65,15.65,0,0,1,2-5.69,14.09,14.09,0,0,0,0-5.55,18.61,18.61,0,0,0-2.19-5.81s-4.89-6-9.67-9.18c-3.42-2.24-7.22-4.68-11.62-3.48a12.28,12.28,0,0,0-8.64,10.72c0,.61-.24,4.94,2.42,6.84,2.31,1.66,6,.93,8.75-2.19a10.63,10.63,0,0,1,8.06-3c1.18.11,3.89.06,5.29,2.19s.9,5.14-.11,7.11c-1.28,2.48-2.82,1.94-6.33,5.29-2.06,2-3.92,3.79-4,6.46a6.55,6.55,0,0,0,1.38,4.27c1.92,2.18,5.22,1.76,7.94,1.42,3.72-.47,4.8-1.64,6.23-.72,1.87,1.21,2,4.53,2.06,5.88,0,.56.19,6.63-3.8,10-2.67,2.22-5.6,1.89-9.78,1.42a23.11,23.11,0,0,1-12.44-4.65c-2.78-2.19-4.85-5.59-9-12.4-3.86-6.36-3.54-6.81-6.45-11.11a52.94,52.94,0,0,0-9.09-10.59c-4-3.48-7.28-6.35-9.67-5s-2.86,5.88-2.31,9A11.68,11.68,0,0,0,103.29,104.4Z"/><path class="cls-6" d="M153.25,70.94c1.46-1.62,5.17,3.29,13.47,3.88,3.09.22,6.58.47,10-1.68,2.1-1.31,2.82-2.67,5.64-3.75a10.06,10.06,0,0,1,5.87-.64c.66.14,4.49,1,4.95,3.1.7,3.23-6.68,7.65-7.71,8.26-8.64,5.18-16.8,4.21-21.76,3.62a11.17,11.17,0,0,1-6-2.07C153.8,78.66,151.85,72.5,153.25,70.94Z"/><ellipse class="cls-6" cx="167.42" cy="69.26" rx="2.72" ry="3.06"/></g></g></svg>